<svg id="Layer_1" data-name="Layer 1" xmlns="http://www.w3.org/2000/svg" xmlns:xlink="http://www.w3.org/1999/xlink" viewBox="0 0 24.67 15"><defs><mask id="mask" x="0" y="0" width="24.67" height="15" maskUnits="userSpaceOnUse"><g transform="translate(0 0)"><g id="mask-2"><polygon id="path-1" class="cls-1" points="24.68 0 0 0 0 15 24.68 15 24.68 0"/></g></g></mask></defs><title>bike_icon_red</title><g id="OF---Estudo-Resultado-de-Busca"><g id="HOME---5a-Localização-Destacada"><g id="Campos-Busca"><g id="abas"><g id="Page-1"><g class="cls-2"><path id="Fill-1" class="cls-3" d="M15.44,0H12.76V1.22h2l.65,1.2H12.7A2.46,2.46,0,0,0,11.09,3L9.47,4.39H1.61V5.61H4a5.26,5.26,0,0,1,5.2,4.69H8A4.05,4.05,0,0,0,4,6.83,4.09,4.09,0,0,0,1.78,14.3,4,4,0,0,0,4,15a4.05,4.05,0,0,0,4-3.47h5.52l3.71-5.61.94,1.75a4,4,0,1,0,2.44-.83,4,4,0,0,0-1.38.25ZM9.73,7.87A6.53,6.53,0,0,0,7.78,5.61H9.91l2-1.66a1.28,1.28,0,0,1,.83-.31H16l.57,1.06L14.52,7.87Zm10.38,3.34,1.06-.58L19.85,8.17a2.79,2.79,0,0,1,.8-.12,2.85,2.85,0,1,1-1.85.7ZM4,13.78A2.87,2.87,0,1,1,6.8,10.31H4v1.22H6.8A2.84,2.84,0,0,1,4,13.78Zm9.68-4.69-.81,1.22H10.45a6.61,6.61,0,0,0-.23-1.22Z" transform="translate(0 0)"/></g></g></g></g></g></g></svg>