<svg id="Layer_1" data-name="Layer 1" xmlns="http://www.w3.org/2000/svg" viewBox="0 0 38.46 12.25"><defs></defs><title>car_icon_red</title><g id="OF---Estudo-Resultado-de-Busca"><g id="HOME---5a-Localização-Destacada"><g id="Campos-Busca"><g id="abas"><g id="Page-1"><path id="Fill-1" class="cls-1" d="M37.71,5.9l.46-.8a.49.49,0,0,0-.07-.58c-.11-.11-.43-.46-3.76-.83a.48.48,0,0,0-.53.43.49.49,0,0,0,.43.54,27.5,27.5,0,0,1,2.81.44l-.44.78a.49.49,0,0,0,.22.69l.61.28c-.22,1.07-.66,2.14-1.06,2.23A16.5,16.5,0,0,1,34,9.33a3.23,3.23,0,1,0-6.18.06L9.4,9.82a3.3,3.3,0,0,0,.11-.92A3.23,3.23,0,1,0,3,9.06a2.67,2.67,0,0,0,.17.91C1.52,9.86,1.49,8.68,1,6.87a2,2,0,0,0,.72-1,2.16,2.16,0,0,0-.08-1.39,5.28,5.28,0,0,0,2.67-.8c.11,0,.47-.22,1.45-.7,1.14-.57,3.06-1.52,3.43-1.63a16.17,16.17,0,0,1,1.7-.15A20.17,20.17,0,0,0,9.27,2.55a.49.49,0,0,0,.26.79c.12,0,2.86.64,3.55.75.15,0,1,0,2.21,0,3.19-.07,8.84-.28,10.33-.33l3.19.2a.46.46,0,0,0,.28-.07,4.63,4.63,0,0,1,2.3-.66c1.3.06,3.19.26,3.21.26A.48.48,0,0,0,35.14,3a.49.49,0,0,0-.43-.54c-.08,0-1.94-.2-3.27-.26A5.44,5.44,0,0,0,28.72,3l-3-.18c-.77-.43-4.52-2.5-6-2.7A84.15,84.15,0,0,0,8.93.4c-.41.13-1.86.84-3.57,1.69L4,2.74a10.63,10.63,0,0,1-3.16.85.48.48,0,0,0-.37.28.49.49,0,0,0,0,.46,1.58,1.58,0,0,1,.3,1.23,1.15,1.15,0,0,1-.55.64A.49.49,0,0,0,0,6.76c.43,1.95,1.18,3.3,2,3.71a3.34,3.34,0,0,0,1.76.62A3.21,3.21,0,0,0,9,10.81l19.39-.45a3.2,3.2,0,0,0,5.19,0,20.11,20.11,0,0,0,3-.29c1.34-.3,1.8-2.88,1.88-3.4a.49.49,0,0,0-.28-.52ZM14.54,1a47.93,47.93,0,0,1,5.07,0,19.48,19.48,0,0,1,4.21,1.79c-3.65.13-8,.27-9.77.3Zm-1,0-.47,2c-.52-.09-1.58-.32-2.37-.5.51-.41,1.23-1,1.92-1.5l.92,0ZM6.34,11.27A2.29,2.29,0,1,1,8.55,8.93a2.28,2.28,0,0,1-2.21,2.34ZM31,10.69a2.29,2.29,0,1,1,2.21-2.34A2.28,2.28,0,0,1,31,10.69Z" transform="translate(0 0)"/></g></g></g></g></g></svg>