<svg id="Layer_1" data-name="Layer 1" xmlns="http://www.w3.org/2000/svg" viewBox="0 0 12 16.8"><defs><style>.cls-1{fill:#ce2727;}</style></defs><title>pin_icon</title><path class="cls-1" d="M9,17.4a.48.48,0,0,1-.37-.18c-.18-.37-5.63-8-5.63-11A5.8,5.8,0,0,1,9,.6H9a5.8,5.8,0,0,1,6,5.59v0c0,3-5.35,10.71-5.63,11A.48.48,0,0,1,9,17.4Zm0-16A4.94,4.94,0,0,0,3.92,6.14c0,2,3.42,7.38,5.08,9.88,1.66-2.49,5.08-7.85,5.08-9.88A4.94,4.94,0,0,0,9,1.43Zm.18,6.92A2.69,2.69,0,0,1,6.42,5.77,2.63,2.63,0,0,1,9.09,3.18h.1A2.69,2.69,0,0,1,12,5.77,2.69,2.69,0,0,1,9.18,8.36Zm0-4.15A1.76,1.76,0,0,0,7.34,5.86,1.76,1.76,0,0,0,9.18,7.52,1.76,1.76,0,0,0,11,5.86,1.76,1.76,0,0,0,9.18,4.2Z" transform="translate(-3 -0.6)"/></svg>